<svg xmlns="http://www.w3.org/2000/svg" viewBox="0 88 980 900" width="980" height="900" font-family="Verdana, 'DejaVu Sans', Arial, sans-serif"><title>Balanced accuracy across the four training stages, two backbones</title><style>
  .num{font-size:22px;font-weight:bold;fill:#fff;text-anchor:middle}
  .h{font-size:32px;font-weight:bold;fill:#000;text-anchor:middle}
  .hl{font-size:26px;font-weight:bold;fill:#000}
  .sub{font-size:19px;fill:#000;text-anchor:middle}
  .b{font-weight:bold}
  .t13{font-size:15px;fill:#000}
  .t15{font-size:17px;fill:#000}
  .t16{font-size:19px;fill:#000}
  .t18{font-size:21px;fill:#000}
  .c{text-anchor:middle}
  .e{text-anchor:end}
  .mut{fill:#3b4750}
  .ic{fill:none;stroke:#000;stroke-width:3;stroke-linecap:round;stroke-linejoin:round}
</style><rect width="980" height="1026" fill="#fff"/><rect x="40.0" y="100.0" width="900.0" height="404.0" fill="#fff" stroke="#8d979e" stroke-width="2" rx="26"/><text x="66.0" y="140.0" class="hl">Qwen2.5-VL-7B</text><text x="66.0" y="164.0" class="t15 mut">the backbone every controlled study in this chapter uses</text><text x="108.0" y="184.0" class="t13 mut">balanced accuracy %</text><line x1="118.0" y1="386.0" x2="914.0" y2="386.0" stroke="#c8d0d6" stroke-width="1"/><text x="108.0" y="391.0" class="t13 mut e">50</text><line x1="118.0" y1="340.8" x2="914.0" y2="340.8" stroke="#c8d0d6" stroke-width="1"/><text x="108.0" y="345.8" class="t13 mut e">60</text><line x1="118.0" y1="295.5" x2="914.0" y2="295.5" stroke="#c8d0d6" stroke-width="1"/><text x="108.0" y="300.5" class="t13 mut e">70</text><line x1="118.0" y1="250.3" x2="914.0" y2="250.3" stroke="#c8d0d6" stroke-width="1"/><text x="108.0" y="255.3" class="t13 mut e">80</text><line x1="118.0" y1="205.0" x2="914.0" y2="205.0" stroke="#c8d0d6" stroke-width="1"/><text x="108.0" y="210.0" class="t13 mut e">90</text><line x1="118.0" y1="386.0" x2="914.0" y2="386.0" stroke="#8d979e" stroke-width="1.5"/><rect x="155.5" y="299.7" width="54.0" height="86.3" fill="#9aa5ad" stroke="#9aa5ad" stroke-width="1.5" rx="2"/><rect x="157.5" y="272.7" width="50.0" height="18.0" fill="#fff" rx="3"/><text x="182.5" y="285.7" class="t13 b c">69.08</text><rect x="225.5" y="368.9" width="54.0" height="17.1" fill="#e3e7ea" stroke="#9aa5ad" stroke-width="1.5" rx="2"/><rect x="227.5" y="341.9" width="50.0" height="18.0" fill="#fff" rx="3"/><text x="252.5" y="354.9" class="t13 b c">53.79</text><text x="217.5" y="414.0" class="t16 b c">Base</text><rect x="354.5" y="249.6" width="54.0" height="136.4" fill="#d4a017" stroke="#d4a017" stroke-width="1.5" rx="2"/><rect x="356.5" y="222.6" width="50.0" height="18.0" fill="#fff" rx="3"/><text x="381.5" y="235.6" class="t13 b c">80.16</text><rect x="424.5" y="319.1" width="54.0" height="66.9" fill="#fde3c0" stroke="#d4a017" stroke-width="1.5" rx="2"/><rect x="426.5" y="292.1" width="50.0" height="18.0" fill="#fff" rx="3"/><text x="451.5" y="305.1" class="t13 b c">64.78</text><text x="416.5" y="414.0" class="t16 b c">SFT</text><rect x="553.5" y="237.9" width="54.0" height="148.1" fill="#1f8ef1" stroke="#1f8ef1" stroke-width="1.5" rx="2"/><rect x="555.5" y="210.9" width="50.0" height="18.0" fill="#fff" rx="3"/><text x="580.5" y="223.9" class="t13 b c">82.73</text><rect x="623.5" y="293.8" width="54.0" height="92.2" fill="#cfe3f7" stroke="#1f8ef1" stroke-width="1.5" rx="2"/><rect x="625.5" y="266.8" width="50.0" height="18.0" fill="#fff" rx="3"/><text x="650.5" y="279.8" class="t13 b c">70.39</text><text x="615.5" y="414.0" class="t16 b c">SFT+GRPO</text><rect x="752.5" y="237.6" width="54.0" height="148.4" fill="#3a7d3a" stroke="#3a7d3a" stroke-width="1.5" rx="2"/><rect x="754.5" y="210.6" width="50.0" height="18.0" fill="#fff" rx="3"/><text x="779.5" y="223.6" class="t13 b c">82.80</text><rect x="822.5" y="286.2" width="54.0" height="99.8" fill="#d4e9d4" stroke="#3a7d3a" stroke-width="1.5" rx="2"/><rect x="824.5" y="259.2" width="50.0" height="18.0" fill="#fff" rx="3"/><text x="849.5" y="272.2" class="t13 b c">72.07</text><text x="814.5" y="414.0" class="t16 b c">KCR</text><polyline points="182.5,299.7 381.5,249.6 580.5,237.9 779.5,237.6" fill="none" stroke="#3a7d3a" stroke-width="2" stroke-dasharray="5 4" opacity="0.5"/><circle cx="182.5" cy="299.7" r="3" fill="#3a7d3a"/><circle cx="381.5" cy="249.6" r="3" fill="#3a7d3a"/><circle cx="580.5" cy="237.9" r="3" fill="#3a7d3a"/><circle cx="779.5" cy="237.6" r="3" fill="#3a7d3a"/><rect x="66.0" y="420.0" width="848.0" height="44.0" fill="#d4e9d4" rx="8"/><text x="82.0" y="450.0" class="t15 b">KCR over SFT:  DS +2.64 pp,  VisA +7.28 pp</text><line x1="484.0" y1="432.0" x2="484.0" y2="456.0" stroke="#3a7d3a" stroke-width="1"/><text x="508.0" y="450.0" class="t15 b">KCR over SFT+GRPO:  DS +0.07 pp,  VisA +1.68 pp</text><rect x="40.0" y="526.0" width="900.0" height="404.0" fill="#fff" stroke="#8d979e" stroke-width="2" rx="26"/><text x="66.0" y="566.0" class="hl">LLaVA-OneVision-7B</text><text x="66.0" y="590.0" class="t15 mut">the same loop run again, on this backbone's own rollouts</text><text x="108.0" y="610.0" class="t13 mut">balanced accuracy %</text><line x1="118.0" y1="812.0" x2="914.0" y2="812.0" stroke="#c8d0d6" stroke-width="1"/><text x="108.0" y="817.0" class="t13 mut e">50</text><line x1="118.0" y1="766.8" x2="914.0" y2="766.8" stroke="#c8d0d6" stroke-width="1"/><text x="108.0" y="771.8" class="t13 mut e">60</text><line x1="118.0" y1="721.5" x2="914.0" y2="721.5" stroke="#c8d0d6" stroke-width="1"/><text x="108.0" y="726.5" class="t13 mut e">70</text><line x1="118.0" y1="676.3" x2="914.0" y2="676.3" stroke="#c8d0d6" stroke-width="1"/><text x="108.0" y="681.3" class="t13 mut e">80</text><line x1="118.0" y1="631.0" x2="914.0" y2="631.0" stroke="#c8d0d6" stroke-width="1"/><text x="108.0" y="636.0" class="t13 mut e">90</text><line x1="118.0" y1="812.0" x2="914.0" y2="812.0" stroke="#8d979e" stroke-width="1.5"/><rect x="155.5" y="695.9" width="54.0" height="116.1" fill="#9aa5ad" stroke="#9aa5ad" stroke-width="1.5" rx="2"/><rect x="157.5" y="668.9" width="50.0" height="18.0" fill="#fff" rx="3"/><text x="182.5" y="681.9" class="t13 b c">75.66</text><rect x="225.5" y="794.8" width="54.0" height="17.2" fill="#e3e7ea" stroke="#9aa5ad" stroke-width="1.5" rx="2"/><rect x="227.5" y="767.8" width="50.0" height="18.0" fill="#fff" rx="3"/><text x="252.5" y="780.8" class="t13 b c">53.80</text><text x="217.5" y="840.0" class="t16 b c">Base</text><rect x="354.5" y="649.5" width="54.0" height="162.5" fill="#d4a017" stroke="#d4a017" stroke-width="1.5" rx="2"/><rect x="356.5" y="622.5" width="50.0" height="18.0" fill="#fff" rx="3"/><text x="381.5" y="635.5" class="t13 b c">85.91</text><rect x="424.5" y="729.4" width="54.0" height="82.6" fill="#fde3c0" stroke="#d4a017" stroke-width="1.5" rx="2"/><rect x="426.5" y="702.4" width="50.0" height="18.0" fill="#fff" rx="3"/><text x="451.5" y="715.4" class="t13 b c">68.26</text><text x="416.5" y="840.0" class="t16 b c">SFT</text><rect x="553.5" y="641.6" width="54.0" height="170.4" fill="#1f8ef1" stroke="#1f8ef1" stroke-width="1.5" rx="2"/><rect x="555.5" y="614.6" width="50.0" height="18.0" fill="#fff" rx="3"/><text x="580.5" y="627.6" class="t13 b c">87.66</text><rect x="623.5" y="710.8" width="54.0" height="101.2" fill="#cfe3f7" stroke="#1f8ef1" stroke-width="1.5" rx="2"/><rect x="625.5" y="683.8" width="50.0" height="18.0" fill="#fff" rx="3"/><text x="650.5" y="696.8" class="t13 b c">72.38</text><text x="615.5" y="840.0" class="t16 b c">SFT+GRPO</text><rect x="752.5" y="643.2" width="54.0" height="168.8" fill="#3a7d3a" stroke="#3a7d3a" stroke-width="1.5" rx="2"/><rect x="754.5" y="616.2" width="50.0" height="18.0" fill="#fff" rx="3"/><text x="779.5" y="629.2" class="t13 b c">87.32</text><rect x="822.5" y="709.6" width="54.0" height="102.4" fill="#d4e9d4" stroke="#3a7d3a" stroke-width="1.5" rx="2"/><rect x="824.5" y="682.6" width="50.0" height="18.0" fill="#fff" rx="3"/><text x="849.5" y="695.6" class="t13 b c">72.65</text><text x="814.5" y="840.0" class="t16 b c">KCR</text><polyline points="182.5,695.9 381.5,649.5 580.5,641.6 779.5,643.2" fill="none" stroke="#3a7d3a" stroke-width="2" stroke-dasharray="5 4" opacity="0.5"/><circle cx="182.5" cy="695.9" r="3" fill="#3a7d3a"/><circle cx="381.5" cy="649.5" r="3" fill="#3a7d3a"/><circle cx="580.5" cy="641.6" r="3" fill="#3a7d3a"/><circle cx="779.5" cy="643.2" r="3" fill="#3a7d3a"/><rect x="66.0" y="846.0" width="848.0" height="44.0" fill="#d4e9d4" rx="8"/><text x="82.0" y="876.0" class="t15 b">KCR over SFT:  DS +1.41 pp,  VisA +4.39 pp</text><line x1="484.0" y1="858.0" x2="484.0" y2="882.0" stroke="#3a7d3a" stroke-width="1"/><text x="508.0" y="876.0" class="t15 b">KCR over SFT+GRPO:  DS -0.34 pp,  VisA +0.27 pp</text><rect x="40.0" y="957.0" width="26.0" height="15.0" fill="#9aa5ad" stroke="#9aa5ad" stroke-width="1.5" rx="2"/><text x="74.0" y="970.0" class="t15">solid: DS-MVTec, 1,670 images</text><rect x="330.0" y="957.0" width="26.0" height="15.0" fill="#e3e7ea" stroke="#9aa5ad" stroke-width="1.5" rx="2"/><text x="364.0" y="970.0" class="t15">pale: VisA, 2,141 images</text><line x1="620.0" y1="965.0" x2="646.0" y2="965.0" stroke="#3a7d3a" stroke-width="2" stroke-dasharray="5 4"/><circle cx="633.0" cy="965.0" r="3" fill="#3a7d3a"/><text x="654.0" y="970.0" class="t15">the DS-MVTec ladder</text></svg>